<svg xmlns="http://www.w3.org/2000/svg" viewBox="0 0 64 64" width="64" height="64">
  <!-- Background -->
  <rect width="64" height="64" rx="12" fill="#2563eb"/>
  
  <!-- Chain/Link element (left) -->
  <path d="M 20 28 Q 16 28 16 32 Q 16 36 20 36" 
        stroke="#60a5fa" stroke-width="4" fill="none" stroke-linecap="round"/>
  
  <!-- Chain/Link element (right) -->
  <path d="M 44 28 Q 48 28 48 32 Q 48 36 44 36" 
        stroke="#60a5fa" stroke-width="4" fill="none" stroke-linecap="round"/>
  
  <!-- Center connecting link -->
  <line x1="20" y1="32" x2="30" y2="32" 
        stroke="#60a5fa" stroke-width="4" stroke-linecap="round"/>
  
  <!-- Lock body -->
  <rect x="28" y="34" width="16" height="14" rx="2" fill="#fbbf24"/>
  
  <!-- Lock shackle -->
  <path d="M 32 34 V 28 Q 32 24 36 24 Q 40 24 40 28 V 34" 
        stroke="#fbbf24" stroke-width="3.5" fill="none" stroke-linecap="round"/>
  
  <!-- Keyhole -->
  <circle cx="36" cy="40" r="2" fill="#2563eb"/>
  <rect x="35" y="40" width="2" height="4" fill="#2563eb"/>
  
  <!-- Shield accent (subtle background) -->
  <path d="M 32 16 L 36 14 L 40 16 L 40 22 Q 40 26 36 28 Q 32 26 32 22 Z" 
        fill="#1e40af" opacity="0.3"/>
</svg>